<svg width="223" height="60" viewBox="0 0 223 60" fill="none" xmlns="http://www.w3.org/2000/svg">
<path d="M43.7833 32.7462C43.7833 38.3692 39.2428 43 33.405 43H10.7026C4.54049 43 0 38.3692 0 32.7462V10.5846C0 4.3 4.54049 0 10.7026 0H33.405C39.2428 0 43.7833 4.63077 43.7833 10.2538V32.7462Z" fill="#FECC00"/>
<path d="M42.1608 33.0771C42.1608 37.7079 38.269 41.6771 33.4042 41.6771H10.3774C5.51258 41.6771 1.62073 37.7079 1.62073 33.0771V10.254C1.62073 5.29247 5.51258 1.32324 10.3774 1.32324H33.4042C38.269 1.32324 42.1608 5.29247 42.1608 10.254V33.0771Z" fill="#2B2724"/>
<path d="M32.7555 30.4312C32.7555 31.7543 32.7555 32.7466 32.1069 33.4081C31.4582 34.4004 30.4852 34.7312 29.5123 34.7312C28.215 34.7312 27.5664 34.4004 26.9177 33.7389C26.2691 32.7466 26.2691 31.7543 26.2691 30.4312V20.8389C26.2691 20.1773 26.5934 19.8466 27.242 19.8466H29.188C30.4852 19.8466 31.1339 20.1773 32.1069 21.1696C32.7555 21.8312 32.7555 23.1543 32.7555 24.4773V30.4312ZM34.0528 19.8466C32.7555 18.8543 31.7825 18.5235 29.8366 18.5235H26.2691V14.885C26.2691 13.8927 26.9177 13.2312 28.5393 13.2312H34.3771V11.5773H23.0259V18.5235H20.107V14.2235C20.107 11.9081 18.8097 10.2543 17.5124 8.93119C15.8908 7.60811 13.2962 7.27734 11.3503 7.27734L9.40438 8.26965C12.3233 8.26965 13.9449 8.60042 15.2422 9.9235C16.5394 10.9158 16.8638 12.9004 16.8638 14.5543V17.5312C16.8638 18.1927 16.5394 18.5235 15.8908 18.5235H8.75574V19.8466H15.8908C16.2151 19.8466 16.8638 20.1773 16.8638 20.8389V25.1389C16.8638 26.7927 16.5394 28.7773 15.2422 29.7696C13.9449 30.762 12.6476 31.4235 9.08006 31.7543L11.3503 32.7466C13.2962 32.7466 15.5665 32.4158 17.1881 30.762C18.4854 29.7696 20.107 28.1158 20.107 25.4696V19.8466H22.0529C22.7015 19.8466 23.0259 19.8466 23.0259 20.8389V29.4389C23.0259 31.4235 23.6745 33.0773 24.6475 34.4004C25.9448 35.3927 27.5664 36.385 29.5123 36.385C31.4582 36.385 33.4041 35.3927 34.3771 34.0696C35.3501 32.7466 35.6744 31.4235 35.6744 29.7696V24.8081C35.6744 23.1543 35.6744 21.1696 34.0528 19.8466Z" fill="#FECC00"/>
<path d="M66.8091 5.62341C64.2146 3.30802 60.6471 2.64648 57.7282 2.64648L55.1336 3.63879C59.3498 3.96956 61.62 4.30033 63.8903 6.28495C65.5119 7.60802 66.1605 10.9157 66.1605 13.2311V18.5234C66.1605 19.5157 65.5119 19.8465 64.5389 19.8465H54.1606V21.1696H64.5389C65.5119 21.1696 66.1605 21.5003 66.1605 22.4926V29.4388C66.1605 32.4157 65.8362 34.7311 63.8903 36.3849C62.2687 37.708 59.9984 38.7003 54.8093 39.0311L57.7282 40.0234C60.6471 40.0234 63.8903 39.3619 66.1605 37.3772C68.4308 35.7234 70.3767 33.0772 70.3767 29.4388V13.2311C70.3767 9.59264 68.7551 6.94648 66.8091 5.62341Z" fill="white"/>
<path d="M219.24 23.1538C218.267 21.8308 216.97 21.1692 215.024 21.1692C216.321 20.8384 217.618 20.1769 218.591 18.8538L220.862 13.5615H218.591L216.321 18.1923C215.672 19.5154 214.375 20.8384 212.429 20.8384H211.456C210.808 20.8384 210.808 20.5077 210.808 19.8461V13.5615H207.889V29.1077H210.808V22.4923C210.808 22.1615 211.132 21.8308 211.781 21.8308H212.753C215.024 21.8308 215.672 22.8231 216.321 23.8154L218.916 29.1077H222.159L219.24 23.1538Z" fill="white"/>
<path d="M85.9441 23.1538C84.9711 21.8308 83.6739 21.1692 81.7279 21.1692C83.3495 20.8384 84.6468 20.1769 85.2955 18.8538L87.89 13.5615H85.2955L83.3495 18.1923C82.7009 19.5154 81.4036 20.8384 79.1334 20.8384H78.4847C77.8361 20.8384 77.8361 20.5077 77.8361 19.8461V13.5615H74.5929V29.1077H77.8361V22.4923C77.8361 22.1615 77.8361 21.8308 78.4847 21.8308H79.782C81.7279 21.8308 82.7009 22.8231 83.3495 23.8154L85.9441 29.1077H88.863L85.9441 23.1538Z" fill="white"/>
<path d="M117.079 13.5615V25.8C117.079 26.4615 116.43 27.1231 115.457 27.7846C114.484 27.7846 113.836 28.1154 112.538 28.1154C109.944 28.1154 108.647 26.7923 108.647 24.1461V13.5615H105.403V23.8154C105.403 25.4692 106.052 27.1231 107.998 28.4461C108.971 29.1077 110.268 29.4384 112.214 29.4384C114.809 29.4384 115.457 29.1077 117.079 28.1154C117.403 27.7846 118.052 27.7846 118.376 28.7769C118.7 29.4384 119.673 29.1077 119.998 29.1077V13.5615H117.079Z" fill="white"/>
<path d="M141.727 13.5616C141.079 13.8923 140.43 14.2231 140.106 14.8846L135.565 20.8385C134.592 22.1616 133.619 22.1616 132.646 20.8385L126.484 14.2231C125.511 13.5616 125.511 13.5616 123.89 13.5616V29.1077H125.511V18.5231C125.511 18.1923 125.836 17.8616 125.836 18.1923L130.7 23.1539C132.646 25.1385 134.592 24.4769 135.565 23.1539L139.457 17.8616C139.781 17.5308 140.106 17.5308 140.106 18.1923V29.1077H143.349V13.5616C142.7 13.2308 142.052 13.2308 141.727 13.5616Z" fill="white"/>
<path d="M178.7 28.4459C176.105 28.4459 175.781 27.7843 175.132 27.1228C174.484 26.1305 174.484 25.4689 174.484 23.4843C174.484 21.4997 174.484 20.8382 175.132 20.1766C175.781 19.5151 176.43 18.8535 178.7 18.8535C180.321 18.8535 181.619 18.8535 182.592 19.8459V26.792C181.943 28.1151 180.321 28.4459 178.7 28.4459ZM184.213 14.8843C183.24 13.892 181.943 13.2305 178.7 13.2305C178.051 13.2305 175.132 13.2305 174.159 13.892C173.511 14.2228 173.186 14.2228 172.213 14.8843L172.862 15.8766C173.511 15.2151 174.159 14.8843 174.808 14.8843C175.781 14.2228 177.078 14.5535 178.376 14.5535C180.646 14.5535 181.619 15.2151 182.267 15.8766C182.592 16.8689 182.592 17.1997 182.592 18.192V18.5228C180.97 17.8612 180.321 17.8612 178.051 17.8612C175.781 17.8612 174.484 18.192 173.511 18.8535C171.889 19.8459 171.565 21.1689 171.565 23.4843V23.8151C171.565 26.1305 171.889 27.4535 173.511 28.4459C174.808 29.4382 175.781 29.4382 178.7 29.4382C180.646 29.4382 181.619 29.1074 182.592 28.4459C183.565 27.7843 183.565 29.1074 185.186 29.1074H185.511V18.5228C185.511 16.8689 185.186 15.8766 184.213 14.8843Z" fill="white"/>
<path d="M201.078 13.5615V19.5154C201.078 20.1769 200.754 20.5077 200.105 20.5077H193.294C192.646 20.5077 192.321 20.1769 192.321 19.5154V13.5615H189.402V29.1077H192.321V22.4923C192.321 21.8308 192.646 21.5 193.619 21.5H200.105C200.754 21.5 201.078 21.8308 201.078 22.8231V29.1077H203.997V13.5615H201.078Z" fill="white"/>
<path d="M164.105 31.0919C164.105 33.0766 164.105 34.3996 163.457 35.7227C162.484 37.0458 160.862 38.0381 159.241 38.0381C157.295 38.0381 155.997 37.3766 155.024 36.0535C154.376 34.7304 154.051 33.4073 154.051 31.4227V15.8766C154.051 15.215 154.376 14.5535 155.349 14.5535H158.916C160.862 14.5535 162.159 15.215 163.132 16.5381C164.105 17.5304 164.105 19.515 164.105 21.1689V31.0919ZM165.727 15.215C163.781 13.8919 162.159 13.5612 159.241 13.5612H154.051V6.28426C154.051 5.29195 154.376 4.29964 155.673 4.29964H166.376V2.97656H155.997H149.835V13.5612H147.241V14.5535H147.889C149.187 14.5535 149.835 14.8843 149.835 16.2073V29.1073C149.835 32.415 150.16 34.3996 151.457 35.7227C153.078 37.7073 155.673 39.0304 159.241 39.0304C162.159 39.0304 164.754 37.7073 166.376 36.0535C167.673 34.3996 168.322 32.415 168.322 29.4381V22.4919C168.322 19.8458 167.997 17.1996 165.727 15.215Z" fill="white"/>
<path d="M102.485 26.792C101.512 28.1151 99.8899 28.4459 97.944 28.4459C95.6738 28.4459 94.7008 27.7843 94.3765 27.1228C93.7278 26.1305 93.7278 25.4689 93.7278 23.4843V19.1843C93.7278 17.1997 93.7278 16.5382 94.3765 15.5459C94.7008 14.8843 95.6738 14.5535 97.944 14.5535C99.5656 14.5535 101.187 14.5535 102.485 15.5459L103.133 14.5535C101.512 13.2305 99.8899 13.2305 97.6197 13.2305C95.3494 13.2305 93.4035 13.5612 92.4305 14.2228C91.1333 15.5459 90.4846 16.5382 90.4846 18.8535V23.8151C90.4846 26.1305 91.1333 27.4535 92.4305 28.4459C93.4035 29.1074 95.3494 29.4382 97.6197 29.4382C99.5656 29.4382 101.836 29.4382 103.457 27.7843L102.485 26.792Z" fill="white"/>
<path d="M148.008 48.4688H149.145L147.662 57H146.566L147.697 50.4961L142.535 57H141.393L142.875 48.4688H143.977L142.846 54.9727L148.008 48.4688ZM154.57 57H153.51L153.984 54.293H151.166L150.691 57H149.631L150.732 50.6602H151.793L151.318 53.4082H154.131L154.611 50.6602H155.672L154.57 57ZM161.836 51.5391H159.773L158.824 57H157.77L158.713 51.5391H156.691L156.844 50.6602H161.988L161.836 51.5391ZM164.232 57.1172C163.443 57.1016 162.826 56.8105 162.381 56.2441C161.936 55.6777 161.748 54.9531 161.818 54.0703L161.848 53.8184C161.914 53.1895 162.1 52.6152 162.404 52.0957C162.713 51.5762 163.088 51.1855 163.529 50.9238C163.971 50.6582 164.447 50.5312 164.959 50.543C165.611 50.5586 166.123 50.7754 166.494 51.1934C166.865 51.6113 167.068 52.1777 167.104 52.8926C167.115 53.1465 167.107 53.4004 167.08 53.6543L167.016 54.1406H162.873C162.803 54.7148 162.896 55.2031 163.154 55.6055C163.416 56.0078 163.805 56.2168 164.32 56.2324C164.945 56.248 165.523 55.9668 166.055 55.3887L166.664 55.9043C166.398 56.2871 166.055 56.5879 165.633 56.8066C165.215 57.0215 164.748 57.125 164.232 57.1172ZM164.906 51.4277C164.469 51.416 164.086 51.5645 163.758 51.873C163.434 52.1816 163.176 52.6406 162.984 53.25L166.066 53.2559L166.09 53.1621C166.152 52.6699 166.072 52.2617 165.85 51.9375C165.631 51.6094 165.316 51.4395 164.906 51.4277ZM173.455 53.8594C173.377 54.5039 173.203 55.084 172.934 55.5996C172.664 56.1152 172.33 56.502 171.932 56.7598C171.533 57.0137 171.092 57.1348 170.607 57.123C169.873 57.1074 169.311 56.8594 168.92 56.3789L168.352 59.4375H167.291L168.814 50.6602L169.775 50.6543L169.658 51.3633C170.182 50.8008 170.809 50.5273 171.539 50.543C172.148 50.5586 172.623 50.7832 172.963 51.2168C173.303 51.6504 173.482 52.248 173.502 53.0098C173.506 53.2598 173.496 53.502 173.473 53.7363L173.455 53.8594ZM172.412 53.7363L172.441 53.2441C172.441 52.6738 172.332 52.2383 172.113 51.9375C171.898 51.6328 171.586 51.4727 171.176 51.457C170.562 51.4414 170.033 51.7324 169.588 52.3301L169.055 55.3711C169.293 55.9336 169.721 56.2227 170.338 56.2383C170.865 56.25 171.312 56.0449 171.68 55.623C172.051 55.1973 172.295 54.5684 172.412 53.7363ZM179.344 57H178.283L178.758 54.293H175.939L175.465 57H174.404L175.506 50.6602H176.566L176.092 53.4082H178.904L179.385 50.6602H180.445L179.344 57ZM183.826 57.1172C183.037 57.1016 182.42 56.8105 181.975 56.2441C181.529 55.6777 181.342 54.9531 181.412 54.0703L181.441 53.8184C181.508 53.1895 181.693 52.6152 181.998 52.0957C182.307 51.5762 182.682 51.1855 183.123 50.9238C183.564 50.6582 184.041 50.5312 184.553 50.543C185.205 50.5586 185.717 50.7754 186.088 51.1934C186.459 51.6113 186.662 52.1777 186.697 52.8926C186.709 53.1465 186.701 53.4004 186.674 53.6543L186.609 54.1406H182.467C182.396 54.7148 182.49 55.2031 182.748 55.6055C183.01 56.0078 183.398 56.2168 183.914 56.2324C184.539 56.248 185.117 55.9668 185.648 55.3887L186.258 55.9043C185.992 56.2871 185.648 56.5879 185.227 56.8066C184.809 57.0215 184.342 57.125 183.826 57.1172ZM184.5 51.4277C184.062 51.416 183.68 51.5645 183.352 51.873C183.027 52.1816 182.77 52.6406 182.578 53.25L185.66 53.2559L185.684 53.1621C185.746 52.6699 185.666 52.2617 185.443 51.9375C185.225 51.6094 184.91 51.4395 184.5 51.4277ZM192.762 51.5391H190.699L189.75 57H188.695L189.639 51.5391H187.617L187.77 50.6602H192.914L192.762 51.5391ZM195.633 53.8184H192.85L193.008 52.9336H195.791L195.633 53.8184ZM199.799 51.0234C200.275 51.0312 200.686 51.1582 201.029 51.4043C201.377 51.6504 201.635 51.9922 201.803 52.4297C201.971 52.8672 202.031 53.3496 201.984 53.877L201.967 54.0117C201.85 54.9648 201.5 55.7266 200.918 56.2969C200.34 56.8633 199.643 57.1367 198.826 57.1172C198.303 57.1094 197.852 56.9688 197.473 56.6953C197.094 56.418 196.816 56.0449 196.641 55.5762C196.469 55.1035 196.414 54.5879 196.477 54.0293L196.5 53.8535L196.529 53.5898C196.682 52.2812 197.045 51.2148 197.619 50.3906C198.197 49.5664 198.959 49.0586 199.904 48.8672L200.566 48.7441C201.156 48.6152 201.5 48.334 201.598 47.9004H202.471C202.432 48.2754 202.338 48.5801 202.189 48.8145C202.045 49.0449 201.838 49.2324 201.568 49.377C201.299 49.5176 200.846 49.6504 200.209 49.7754C199.572 49.9004 199.049 50.1426 198.639 50.502C198.229 50.8613 197.898 51.3672 197.648 52.0195C198.309 51.3398 199.025 51.0078 199.799 51.0234ZM199.541 51.9082C199.045 51.8965 198.619 52.0586 198.264 52.3945C197.908 52.7266 197.678 53.1836 197.572 53.7656L197.531 54.041L197.514 54.5391C197.525 55.0547 197.648 55.4668 197.883 55.7754C198.121 56.0801 198.451 56.2363 198.873 56.2441C199.408 56.2559 199.857 56.0605 200.221 55.6582C200.588 55.2559 200.822 54.6641 200.924 53.8828C200.979 53.2891 200.883 52.8164 200.637 52.4648C200.391 52.1094 200.031 51.9238 199.559 51.9082H199.541ZM206.525 57C206.498 56.8867 206.484 56.7754 206.484 56.666L206.502 56.332C205.92 56.8711 205.303 57.1328 204.65 57.1172C204.092 57.1094 203.637 56.9336 203.285 56.5898C202.938 56.2422 202.779 55.8086 202.811 55.2891C202.85 54.6172 203.143 54.0938 203.689 53.7188C204.24 53.3398 204.963 53.1504 205.857 53.1504L206.965 53.1562L207.035 52.6523C207.074 52.2734 207 51.9746 206.812 51.7559C206.629 51.5332 206.352 51.418 205.98 51.4102C205.617 51.4023 205.295 51.4922 205.014 51.6797C204.736 51.8633 204.566 52.1074 204.504 52.4121L203.438 52.418C203.473 52.0469 203.617 51.7188 203.871 51.4336C204.125 51.1445 204.451 50.9219 204.85 50.7656C205.248 50.6055 205.66 50.5293 206.086 50.5371C206.746 50.5527 207.26 50.7539 207.627 51.1406C207.994 51.5234 208.148 52.0332 208.09 52.6699L207.574 55.8105L207.545 56.2617C207.537 56.4766 207.561 56.6895 207.615 56.9004L207.604 57H206.525ZM204.861 56.1797C205.201 56.1875 205.521 56.1074 205.822 55.9395C206.127 55.7676 206.389 55.5312 206.607 55.2305L206.836 53.9238L206.033 53.918C205.365 53.918 204.854 54.0234 204.498 54.2344C204.143 54.4453 203.941 54.7441 203.895 55.1309C203.859 55.4277 203.928 55.6758 204.1 55.875C204.275 56.0703 204.529 56.1719 204.861 56.1797ZM214.078 57H213.018L213.492 54.293H210.674L210.199 57H209.139L210.24 50.6602H211.301L210.826 53.4082H213.639L214.119 50.6602H215.18L214.078 57ZM218.25 54.2988H217.447L216.973 57H215.912L217.014 50.6602H218.074L217.605 53.3438H218.25L220.781 50.6602H222.146L219.135 53.7598L221.168 57H219.914L218.25 54.2988Z" fill="white"/>
</svg>
